<svg width="50" height="50" viewBox="0 0 50 50" fill="none" xmlns="http://www.w3.org/2000/svg">
<rect width="50" height="50" rx="7" transform="matrix(1 0 0 -1 0 50)" fill="white"/>
<path d="M12.5455 37H5.72727L13.4091 13.7273H22.0455L29.7273 37H22.9091L17.8182 20.1364H17.6364L12.5455 37ZM11.2727 27.8182H24.0909V32.5455H11.2727V27.8182ZM24.2887 37V13.7273H34.3342C36.0615 13.7273 37.5728 14.0682 38.8683 14.75C40.1638 15.4318 41.1713 16.3902 41.891 17.625C42.6107 18.8598 42.9706 20.303 42.9706 21.9545C42.9706 23.6212 42.5994 25.0644 41.8569 26.2841C41.1221 27.5038 40.088 28.4432 38.7547 29.1023C37.4289 29.7614 35.8797 30.0909 34.1069 30.0909H28.1069V25.1818H32.8342C33.5766 25.1818 34.2092 25.053 34.7319 24.7955C35.2622 24.5303 35.6675 24.1553 35.9478 23.6705C36.2357 23.1856 36.3797 22.6136 36.3797 21.9545C36.3797 21.2879 36.2357 20.7197 35.9478 20.25C35.6675 19.7727 35.2622 19.4091 34.7319 19.1591C34.2092 18.9015 33.5766 18.7727 32.8342 18.7727H30.6069V37H24.2887Z" fill="black"/>
</svg>
